<?xml version="1.0" standalone="no"?>
<!DOCTYPE svg PUBLIC "-//W3C//DTD SVG 20010904//EN"
 "http://www.w3.org/TR/2001/REC-SVG-20010904/DTD/svg10.dtd">
<svg version="1.0" xmlns="http://www.w3.org/2000/svg"
 width="260.000000pt" height="260.000000pt" viewBox="0 0 260.000000 260.000000"
 preserveAspectRatio="xMidYMid meet">
<metadata>
Created by potrace 1.14, written by Peter Selinger 2001-2017
</metadata>
<g transform="translate(0.000000,260.000000) scale(0.100000,-0.100000)"
fill="#000000" stroke="none">
<path d="M600 1911 c-203 -30 -346 -130 -428 -301 -56 -118 -76 -216 -75 -370
1 -225 57 -386 176 -505 110 -110 237 -158 417 -158 185 -1 302 44 416 157 79
80 121 155 156 283 30 113 30 344 -1 458 -59 220 -198 368 -394 419 -72 19
-197 27 -267 17z m220 -157 c137 -41 237 -156 276 -320 23 -92 23 -285 1 -377
-35 -143 -117 -250 -232 -304 -55 -26 -70 -28 -175 -28 -104 0 -121 3 -172 27
-71 33 -146 102 -181 167 -88 161 -91 476 -7 642 46 89 135 163 235 195 57 18
191 17 255 -2z"/>
<path d="M1910 1910 c-89 -11 -162 -37 -226 -78 -119 -77 -169 -171 -162 -307
11 -196 116 -288 389 -340 355 -68 402 -93 417 -222 11 -101 -59 -187 -181
-225 -59 -18 -86 -20 -186 -15 -159 7 -266 42 -393 128 l-58 39 0 -108 0 -107
73 -28 c193 -72 400 -92 572 -55 118 25 235 102 291 189 76 121 70 298 -14
391 -75 83 -153 115 -385 158 -195 37 -220 44 -272 73 -77 43 -107 154 -65
238 43 84 146 129 294 129 145 0 274 -35 389 -104 l57 -35 0 99 0 98 -39 15
c-68 28 -196 57 -293 67 -103 11 -127 11 -208 0z"/>
</g>
</svg>
